<mxfile host="app.diagrams.net" agent="Mozilla/5.0 (Windows NT 10.0; Win64; x64) AppleWebKit/537.36 (KHTML, like Gecko) Chrome/132.0.0.0 Safari/537.36 OPR/117.0.0.0" version="26.2.12">
  <diagram name="Vista de Despliegue - Gesti贸n de Reserva Hotelera" id="SHn1UdIddzw7HhqC-_Y_">
    <mxGraphModel grid="1" page="1" gridSize="10" guides="1" tooltips="1" connect="1" arrows="1" fold="1" pageScale="1" pageWidth="850" pageHeight="1100" math="0" shadow="0">
      <root>
        <mxCell id="0" />
        <mxCell id="1" parent="0" />
        <mxCell id="8JdwAh4uxgI_8fxjC0hq-1" value="" style="shape=rect;whiteSpace=wrap;html=1;fillColor=#DAE8FC;" vertex="1" parent="1">
          <mxGeometry x="35" y="65" width="210" height="130" as="geometry" />
        </mxCell>
        <mxCell id="8JdwAh4uxgI_8fxjC0hq-2" value="Interfaz web" style="component;whiteSpace=wrap;html=1;" vertex="1" parent="8JdwAh4uxgI_8fxjC0hq-1">
          <mxGeometry x="50" y="43" width="110" height="42" as="geometry" />
        </mxCell>
        <mxCell id="8JdwAh4uxgI_8fxjC0hq-16" value="Dispositivo cliente (PC/m贸vil)" style="text;html=1;align=center;verticalAlign=middle;resizable=0;points=[];autosize=1;strokeColor=none;fillColor=none;" vertex="1" parent="8JdwAh4uxgI_8fxjC0hq-1">
          <mxGeometry x="15" y="95" width="180" height="30" as="geometry" />
        </mxCell>
        <mxCell id="8JdwAh4uxgI_8fxjC0hq-4" value="Servidor Web&amp;nbsp;" style="shape=rect;whiteSpace=wrap;html=1;fillColor=#E1D5E7;" vertex="1" parent="1">
          <mxGeometry x="380" y="60" width="220" height="140" as="geometry" />
        </mxCell>
        <mxCell id="8JdwAh4uxgI_8fxjC0hq-5" value="M贸dulo Reservas" style="component;whiteSpace=wrap;html=1;" vertex="1" parent="8JdwAh4uxgI_8fxjC0hq-4">
          <mxGeometry x="20" y="20" width="160" height="40" as="geometry" />
        </mxCell>
        <mxCell id="8JdwAh4uxgI_8fxjC0hq-6" value="M贸dulo Usuarios" style="component;whiteSpace=wrap;html=1;" vertex="1" parent="8JdwAh4uxgI_8fxjC0hq-4">
          <mxGeometry x="20" y="80" width="160" height="40" as="geometry" />
        </mxCell>
        <mxCell id="8JdwAh4uxgI_8fxjC0hq-7" value="Base de Datos&amp;nbsp;" style="shape=cylinder;whiteSpace=wrap;html=1;fillColor=#F8CECC;" vertex="1" parent="1">
          <mxGeometry x="680" y="100" width="160" height="80" as="geometry" />
        </mxCell>
        <mxCell id="8JdwAh4uxgI_8fxjC0hq-8" value="Servicio de Pago Externo" style="shape=rect;whiteSpace=wrap;html=1;fillColor=#FFE6CC;" vertex="1" parent="1">
          <mxGeometry x="410" y="300" width="160" height="60" as="geometry" />
        </mxCell>
        <mxCell id="8JdwAh4uxgI_8fxjC0hq-17" value="" style="endArrow=none;html=1;rounded=0;entryX=0;entryY=0.5;entryDx=0;entryDy=0;exitX=1;exitY=0.5;exitDx=0;exitDy=0;" edge="1" parent="1" source="8JdwAh4uxgI_8fxjC0hq-1" target="8JdwAh4uxgI_8fxjC0hq-4">
          <mxGeometry width="50" height="50" relative="1" as="geometry">
            <mxPoint x="280" y="155" as="sourcePoint" />
            <mxPoint x="330" y="105" as="targetPoint" />
          </mxGeometry>
        </mxCell>
        <mxCell id="8JdwAh4uxgI_8fxjC0hq-18" value="" style="endArrow=none;html=1;rounded=0;exitX=1;exitY=0.5;exitDx=0;exitDy=0;" edge="1" parent="1" source="8JdwAh4uxgI_8fxjC0hq-4">
          <mxGeometry width="50" height="50" relative="1" as="geometry">
            <mxPoint x="630" y="180" as="sourcePoint" />
            <mxPoint x="680" y="130" as="targetPoint" />
          </mxGeometry>
        </mxCell>
        <mxCell id="8JdwAh4uxgI_8fxjC0hq-19" value="" style="endArrow=none;html=1;rounded=0;entryX=0.5;entryY=1;entryDx=0;entryDy=0;exitX=0.5;exitY=0;exitDx=0;exitDy=0;" edge="1" parent="1" source="8JdwAh4uxgI_8fxjC0hq-8" target="8JdwAh4uxgI_8fxjC0hq-4">
          <mxGeometry width="50" height="50" relative="1" as="geometry">
            <mxPoint x="440" y="260" as="sourcePoint" />
            <mxPoint x="490" y="210" as="targetPoint" />
          </mxGeometry>
        </mxCell>
      </root>
    </mxGraphModel>
  </diagram>
</mxfile>
